# xmcd
#
# Track frame offsets: 
#        150
#        54365
#        90582
#        133027
#        175072
#        202725
#        228947
#        250552
#        268760
#        292635
#        314535
#        334830
#
# Disc length: 4640 seconds
#
# Revision: 1
# Processed by: cddbd v1.5.2PL0 Copyright (c) Steve Scherf et al.
# Submitted via: ExactAudioCopy v1.1
#
DISCID=9a121e0c
DTITLE=Grateful Dead - Nightfall of Diamonds 10-16-89 Meadowlands Aren
DTITLE=a, NJ (HDCD) d2
DYEAR=1989
DGENRE=Rock
TTITLE0=Dark star
TTITLE1=Playing In the Band
TTITLE2=Uncle John's Band
TTITLE3=Jam
TTITLE4=Drums
TTITLE5=Space
TTITLE6=I Will Take You Home
TTITLE7=I Need A Miracle
TTITLE8=Dark Star
TTITLE9=Attics Of My Life
TTITLE10=Playing In The Band
TTITLE11=We Bid You Goodnight
EXTD=
EXTT0=
EXTT1=
EXTT2=
EXTT3=
EXTT4=
EXTT5=
EXTT6=
EXTT7=
EXTT8=
EXTT9=
EXTT10=
EXTT11=
PLAYORDER=
